<?xml version="1.0" encoding="UTF-8"?>
<svg width="100px" height="86px" viewBox="0 0 100 86" version="1.1" xmlns="http://www.w3.org/2000/svg" xmlns:xlink="http://www.w3.org/1999/xlink">
    <!-- Generator: Sketch 44.1 (41455) - http://www.bohemiancoding.com/sketch -->
    <title>noun_749700_cc@2x</title>
    <desc>Created with Sketch.</desc>
    <defs></defs>
    <g id="Page-1" stroke="none" stroke-width="1" fill="none" fill-rule="evenodd">
        <g id="Landing-Mabel" transform="translate(-120.000000, -1933.000000)" fill-rule="nonzero" fill="#009FB8">
            <g id="noun_749700_cc" transform="translate(120.000000, 1933.000000)">
                <g id="Group">
                    <path d="M18.515625,20.4836364 C18.515625,20.1709091 18.28125,19.8581818 17.890625,19.8581818 C17.578125,19.8581818 17.265625,20.0927273 17.265625,20.4836364 L17.265625,30.96 C17.265625,31.2727273 17.5,31.5854545 17.890625,31.5854545 C18.203125,31.5854545 18.515625,31.3509091 18.515625,30.96 L18.515625,20.4836364 Z" id="Shape"></path>
                    <path d="M17.890625,33.7745455 C17.578125,33.7745455 17.265625,34.0090909 17.265625,34.4 L17.265625,37.7618182 C17.265625,38.0745455 17.5,38.3872727 17.890625,38.3872727 C18.203125,38.3872727 18.515625,38.1527273 18.515625,37.7618182 L18.515625,34.4 C18.515625,34.0872727 18.203125,33.7745455 17.890625,33.7745455 Z" id="Shape"></path>
                    <path d="M98.984375,39.7163636 C98.671875,39.7163636 98.359375,39.9509091 98.359375,40.3418182 L98.359375,50.8181818 C98.359375,51.1309091 98.59375,51.4436364 98.984375,51.4436364 C99.296875,51.4436364 99.609375,51.2090909 99.609375,50.8181818 L99.609375,40.3418182 C99.609375,40.0290909 99.375,39.7163636 98.984375,39.7163636 Z" id="Shape"></path>
                    <path d="M98.984375,53.6327273 C98.671875,53.6327273 98.359375,53.8672727 98.359375,54.2581818 L98.359375,57.62 C98.359375,57.9327273 98.59375,58.2454545 98.984375,58.2454545 C99.296875,58.2454545 99.609375,58.0109091 99.609375,57.62 L99.609375,54.2581818 C99.609375,53.9454545 99.375,53.6327273 98.984375,53.6327273 Z" id="Shape"></path>
                    <path d="M5.234375,43.7036364 C5.3125,43.7818182 5.46875,43.86 5.625,43.86 C5.78125,43.86 5.9375,43.7818182 6.015625,43.7036364 C6.25,43.4690909 6.25,43.0781818 6.015625,42.8436364 L4.6875,41.5145455 C4.453125,41.28 4.0625,41.28 3.828125,41.5145455 C3.59375,41.7490909 3.59375,42.14 3.828125,42.3745455 L5.234375,43.7036364 Z" id="Shape"></path>
                    <path d="M9.0625,45.8927273 C8.828125,45.6581818 8.4375,45.6581818 8.203125,45.8927273 C7.96875,46.1272727 7.96875,46.5181818 8.203125,46.7527273 L9.53125,48.0818182 C9.609375,48.16 9.765625,48.2381818 9.921875,48.2381818 C10.078125,48.2381818 10.234375,48.16 10.3125,48.0818182 C10.546875,47.8472727 10.546875,47.4563636 10.3125,47.2218182 L9.0625,45.8927273 Z" id="Shape"></path>
                    <path d="M4.296875,48.2381818 C4.453125,48.2381818 4.609375,48.16 4.6875,48.0818182 L6.015625,46.7527273 C6.25,46.44 6.25,46.1272727 6.09375,45.8927273 C5.859375,45.6581818 5.46875,45.6581818 5.234375,45.8927273 L3.90625,47.2218182 C3.671875,47.4563636 3.671875,47.8472727 3.90625,48.0818182 C3.984375,48.16 4.140625,48.2381818 4.296875,48.2381818 Z" id="Shape"></path>
                    <path d="M10.390625,41.5145455 C10.15625,41.28 9.765625,41.28 9.53125,41.5145455 L8.203125,42.8436364 C7.96875,43.0781818 7.96875,43.4690909 8.203125,43.7036364 C8.28125,43.7818182 8.4375,43.86 8.59375,43.86 C8.75,43.86 8.90625,43.7818182 8.984375,43.7036364 L10.3125,42.3745455 C10.625,42.14 10.625,41.7490909 10.390625,41.5145455 Z" id="Shape"></path>
                    <path d="M49.140625,71.8490909 C48.90625,71.6145455 48.515625,71.6145455 48.28125,71.8490909 C48.046875,72.0836364 48.046875,72.4745455 48.28125,72.7090909 L49.609375,74.0381818 C49.6875,74.1163636 49.84375,74.1945455 50,74.1945455 C50.15625,74.1945455 50.3125,74.1163636 50.390625,74.0381818 C50.625,73.8036364 50.625,73.4127273 50.390625,73.1781818 L49.140625,71.8490909 Z" id="Shape"></path>
                    <path d="M53.515625,76.1490909 C53.28125,75.9145455 52.890625,75.9145455 52.65625,76.1490909 C52.421875,76.3836364 52.421875,76.7745455 52.65625,77.0090909 L53.984375,78.3381818 C54.0625,78.4163636 54.21875,78.4945455 54.375,78.4945455 C54.53125,78.4945455 54.6875,78.4163636 54.765625,78.3381818 C55,78.1036364 55,77.7127273 54.765625,77.4781818 L53.515625,76.1490909 Z" id="Shape"></path>
                    <path d="M49.6875,76.1490909 L48.359375,77.4781818 C48.125,77.7127273 48.125,78.1036364 48.359375,78.3381818 C48.4375,78.4163636 48.59375,78.4945455 48.75,78.4945455 C48.90625,78.4945455 49.0625,78.4163636 49.140625,78.3381818 L50.46875,77.0090909 C50.703125,76.7745455 50.703125,76.3836364 50.46875,76.1490909 C50.3125,75.9145455 49.921875,75.9145455 49.6875,76.1490909 Z" id="Shape"></path>
                    <path d="M53.984375,71.8490909 L52.65625,73.1781818 C52.421875,73.4127273 52.421875,73.8036364 52.65625,74.0381818 C52.734375,74.1163636 52.890625,74.1945455 53.046875,74.1945455 C53.203125,74.1945455 53.359375,74.1163636 53.4375,74.0381818 L54.765625,72.7090909 C55,72.4745455 55,72.0836364 54.765625,71.8490909 C54.609375,71.6145455 54.21875,71.6145455 53.984375,71.8490909 Z" id="Shape"></path>
                    <path d="M90.546875,2.65818182 C90.625,2.73636364 90.78125,2.81454545 90.9375,2.81454545 C91.09375,2.81454545 91.25,2.73636364 91.328125,2.65818182 C91.5625,2.42363636 91.5625,2.03272727 91.328125,1.79818182 L90,0.469090909 C89.765625,0.234545455 89.375,0.234545455 89.140625,0.469090909 C88.90625,0.703636364 88.90625,1.09454545 89.140625,1.32909091 L90.546875,2.65818182 Z" id="Shape"></path>
                    <path d="M94.375,4.84727273 C94.140625,4.61272727 93.75,4.61272727 93.515625,4.84727273 C93.28125,5.08181818 93.28125,5.47272727 93.515625,5.70727273 L94.84375,7.03636364 C94.921875,7.11454545 95.078125,7.19272727 95.234375,7.19272727 C95.390625,7.19272727 95.546875,7.11454545 95.625,7.03636364 C95.859375,6.80181818 95.859375,6.41090909 95.625,6.17636364 L94.375,4.84727273 Z" id="Shape"></path>
                    <path d="M89.609375,7.19272727 C89.765625,7.19272727 89.921875,7.11454545 90,7.03636364 L91.328125,5.70727273 C91.5625,5.47272727 91.5625,5.08181818 91.328125,4.84727273 C91.09375,4.61272727 90.703125,4.61272727 90.46875,4.84727273 L89.140625,6.17636364 C88.90625,6.41090909 88.90625,6.80181818 89.140625,7.03636364 C89.296875,7.11454545 89.453125,7.19272727 89.609375,7.19272727 Z" id="Shape"></path>
                    <path d="M94.84375,0.469090909 L93.515625,1.79818182 C93.28125,2.03272727 93.28125,2.42363636 93.515625,2.65818182 C93.59375,2.73636364 93.75,2.81454545 93.90625,2.81454545 C94.0625,2.81454545 94.21875,2.73636364 94.296875,2.65818182 L95.625,1.32909091 C95.859375,1.09454545 95.859375,0.703636364 95.625,0.469090909 C95.46875,0.234545455 95.078125,0.234545455 94.84375,0.469090909 Z" id="Shape"></path>
                    <path d="M51.875,15.9490909 C53.515625,15.9490909 54.921875,14.62 54.921875,12.9 C54.921875,11.18 53.59375,9.85090909 51.875,9.85090909 C50.234375,9.85090909 48.828125,11.18 48.828125,12.9 C48.828125,14.62 50.234375,15.9490909 51.875,15.9490909 Z M51.875,11.0236364 C52.890625,11.0236364 53.75,11.8836364 53.75,12.9 C53.75,13.9163636 52.890625,14.7763636 51.875,14.7763636 C50.859375,14.7763636 50,13.9163636 50,12.9 C50,11.8836364 50.859375,11.0236364 51.875,11.0236364 Z" id="Shape"></path>
                    <path d="M9.296875,79.5890909 C7.65625,79.5890909 6.25,80.9181818 6.25,82.6381818 C6.25,84.28 7.578125,85.6872727 9.296875,85.6872727 C10.9375,85.6872727 12.34375,84.3581818 12.34375,82.6381818 C12.34375,80.9963636 11.015625,79.5890909 9.296875,79.5890909 Z M9.296875,84.5145455 C8.28125,84.5145455 7.421875,83.6545455 7.421875,82.6381818 C7.421875,81.6218182 8.28125,80.7618182 9.296875,80.7618182 C10.3125,80.7618182 11.171875,81.6218182 11.171875,82.6381818 C11.171875,83.6545455 10.3125,84.5145455 9.296875,84.5145455 Z" id="Shape"></path>
                    <path d="M13.046875,10.4763636 C13.046875,10.7890909 13.28125,11.1018182 13.671875,11.1018182 L25,11.1018182 C25.3125,11.1018182 25.625,10.8672727 25.625,10.4763636 C25.625,10.1636364 25.390625,9.85090909 25,9.85090909 L13.671875,9.85090909 C13.359375,9.85090909 13.046875,10.1636364 13.046875,10.4763636 Z" id="Shape"></path>
                    <path d="M6.25,11.0236364 L9.921875,11.0236364 C10.234375,11.0236364 10.546875,10.7890909 10.546875,10.3981818 C10.546875,10.0854545 10.3125,9.77272727 9.921875,9.77272727 L6.25,9.77272727 C5.9375,9.77272727 5.625,10.0072727 5.625,10.3981818 C5.703125,10.7890909 5.9375,11.0236364 6.25,11.0236364 Z" id="Shape"></path>
                    <path d="M6.25,7.19272727 L14.140625,7.19272727 C14.453125,7.19272727 14.765625,6.95818182 14.765625,6.56727273 C14.765625,6.25454545 14.53125,5.94181818 14.140625,5.94181818 L6.25,5.94181818 C5.9375,5.94181818 5.625,6.17636364 5.625,6.56727273 C5.703125,6.88 5.9375,7.19272727 6.25,7.19272727 Z" id="Shape"></path>
                    <path d="M17.578125,7.19272727 L20.15625,7.19272727 C20.46875,7.19272727 20.78125,6.95818182 20.78125,6.56727273 C20.78125,6.25454545 20.546875,5.94181818 20.15625,5.94181818 L17.578125,5.94181818 C17.265625,5.94181818 16.953125,6.17636364 16.953125,6.56727273 C17.03125,6.88 17.265625,7.19272727 17.578125,7.19272727 Z" id="Shape"></path>
                    <path d="M86.796875,72.9436364 C86.796875,72.6309091 86.5625,72.3181818 86.171875,72.3181818 L74.84375,72.3181818 C74.53125,72.3181818 74.21875,72.5527273 74.21875,72.9436364 C74.21875,73.2563636 74.453125,73.5690909 74.84375,73.5690909 L86.171875,73.5690909 C86.484375,73.5690909 86.796875,73.3345455 86.796875,72.9436364 Z" id="Shape"></path>
                    <path d="M93.59375,72.3963636 L89.921875,72.3963636 C89.609375,72.3963636 89.296875,72.6309091 89.296875,73.0218182 C89.296875,73.3345455 89.53125,73.6472727 89.921875,73.6472727 L93.59375,73.6472727 C93.90625,73.6472727 94.21875,73.4127273 94.21875,73.0218182 C94.140625,72.6309091 93.90625,72.3963636 93.59375,72.3963636 Z" id="Shape"></path>
                    <path d="M93.59375,76.3054545 L85.703125,76.3054545 C85.390625,76.3054545 85.078125,76.54 85.078125,76.9309091 C85.078125,77.2436364 85.3125,77.5563636 85.703125,77.5563636 L93.59375,77.5563636 C93.90625,77.5563636 94.21875,77.3218182 94.21875,76.9309091 C94.140625,76.54 93.90625,76.3054545 93.59375,76.3054545 Z" id="Shape"></path>
                    <path d="M82.265625,76.3054545 L79.6875,76.3054545 C79.375,76.3054545 79.0625,76.54 79.0625,76.9309091 C79.0625,77.2436364 79.296875,77.5563636 79.6875,77.5563636 L82.265625,77.5563636 C82.578125,77.5563636 82.890625,77.3218182 82.890625,76.9309091 C82.890625,76.54 82.578125,76.3054545 82.265625,76.3054545 Z" id="Shape"></path>
                    <path d="M7.96875,71.6927273 L7.96875,69.0345455 C7.96875,68.7218182 7.734375,68.4090909 7.34375,68.4090909 C6.953125,68.4090909 6.796875,68.8 6.796875,69.1127273 L6.796875,71.7709091 C6.796875,72.0836364 7.03125,72.3963636 7.421875,72.3963636 C7.8125,72.3963636 7.96875,72.0836364 7.96875,71.6927273 Z" id="Shape"></path>
                    <path d="M33.359375,50.5836364 L31.796875,50.5836364 C31.484375,50.5836364 31.171875,50.8181818 31.171875,51.2090909 C31.171875,51.5218182 31.40625,51.8345455 31.796875,51.8345455 L33.359375,51.8345455 C33.671875,51.8345455 33.984375,51.6 33.984375,51.2090909 C33.90625,50.8181818 33.671875,50.5836364 33.359375,50.5836364 Z" id="Shape"></path>
                    <path d="M36.015625,50.5836364 L35.625,50.5836364 C35.3125,50.5836364 35,50.8181818 35,51.2090909 C35,51.5218182 35.234375,51.8345455 35.625,51.8345455 L36.015625,51.8345455 C36.328125,51.8345455 36.640625,51.6 36.640625,51.2090909 C36.5625,50.8181818 36.328125,50.5836364 36.015625,50.5836364 Z" id="Shape"></path>
                    <path d="M39.0625,51.7563636 L41.328125,51.7563636 L41.484375,51.7563636 L41.640625,51.7563636 L44.6875,51.7563636 C45,51.7563636 45.3125,51.5218182 45.3125,51.1309091 C45.3125,50.8181818 45.078125,50.5054545 44.6875,50.5054545 L41.640625,50.5054545 L41.484375,50.5054545 L41.328125,50.5054545 L39.0625,50.5054545 C38.75,50.5054545 38.4375,50.74 38.4375,51.1309091 C38.4375,51.4436364 38.75,51.7563636 39.0625,51.7563636 Z" id="Shape"></path>
                    <path d="M84.765625,51.7563636 L87.03125,51.7563636 L87.1875,51.7563636 L87.34375,51.7563636 L88.90625,51.7563636 C89.21875,51.7563636 89.53125,51.5218182 89.53125,51.1309091 C89.53125,50.8181818 89.296875,50.5054545 88.90625,50.5054545 L87.34375,50.5054545 L87.1875,50.5054545 L87.03125,50.5054545 L84.765625,50.5054545 C84.453125,50.5054545 84.140625,50.74 84.140625,51.1309091 C84.140625,51.4436364 84.453125,51.7563636 84.765625,51.7563636 Z" id="Shape"></path>
                    <path d="M61.875,51.7563636 L64.140625,51.7563636 L64.296875,51.7563636 L64.453125,51.7563636 L67.5,51.7563636 C67.8125,51.7563636 68.125,51.5218182 68.125,51.1309091 C68.125,50.8181818 67.890625,50.5054545 67.5,50.5054545 L64.453125,50.5054545 L64.296875,50.5054545 L64.140625,50.5054545 L61.875,50.5054545 C61.5625,50.5054545 61.25,50.74 61.25,51.1309091 C61.328125,51.4436364 61.5625,51.7563636 61.875,51.7563636 Z" id="Shape"></path>
                    <path d="M81.328125,51.7563636 L81.71875,51.7563636 C82.03125,51.7563636 82.34375,51.5218182 82.34375,51.1309091 C82.34375,50.8181818 82.109375,50.5054545 81.71875,50.5054545 L81.328125,50.5054545 C81.015625,50.5054545 80.703125,50.74 80.703125,51.1309091 C80.703125,51.4436364 81.015625,51.7563636 81.328125,51.7563636 Z" id="Shape"></path>
                    <path d="M73.359375,51.7563636 L75.625,51.7563636 L75.78125,51.7563636 L75.9375,51.7563636 L78.984375,51.7563636 C79.296875,51.7563636 79.609375,51.5218182 79.609375,51.1309091 C79.609375,50.8181818 79.375,50.5054545 78.984375,50.5054545 L75.9375,50.5054545 L75.78125,50.5054545 L75.625,50.5054545 L73.359375,50.5054545 C73.046875,50.5054545 72.734375,50.74 72.734375,51.1309091 C72.734375,51.4436364 72.96875,51.7563636 73.359375,51.7563636 Z" id="Shape"></path>
                    <path d="M69.921875,51.7563636 L70.3125,51.7563636 C70.625,51.7563636 70.9375,51.5218182 70.9375,51.1309091 C70.9375,50.8181818 70.703125,50.5054545 70.3125,50.5054545 L69.921875,50.5054545 C69.609375,50.5054545 69.296875,50.74 69.296875,51.1309091 C69.296875,51.4436364 69.609375,51.7563636 69.921875,51.7563636 Z" id="Shape"></path>
                    <path d="M58.4375,51.7563636 L58.828125,51.7563636 C59.140625,51.7563636 59.453125,51.5218182 59.453125,51.1309091 C59.453125,50.8181818 59.21875,50.5054545 58.828125,50.5054545 L58.4375,50.5054545 C58.125,50.5054545 57.8125,50.74 57.8125,51.1309091 C57.890625,51.4436364 58.125,51.7563636 58.4375,51.7563636 Z" id="Shape"></path>
                    <path d="M47.03125,51.7563636 L47.421875,51.7563636 C47.734375,51.7563636 48.046875,51.5218182 48.046875,51.1309091 C48.046875,50.8181818 47.8125,50.5054545 47.421875,50.5054545 L47.03125,50.5054545 C46.71875,50.5054545 46.40625,50.74 46.40625,51.1309091 C46.484375,51.4436364 46.71875,51.7563636 47.03125,51.7563636 Z" id="Shape"></path>
                    <path d="M50.46875,51.7563636 L52.734375,51.7563636 L52.890625,51.7563636 L53.046875,51.7563636 L56.09375,51.7563636 C56.40625,51.7563636 56.71875,51.5218182 56.71875,51.1309091 C56.71875,50.8181818 56.484375,50.5054545 56.09375,50.5054545 L53.125,50.5054545 L52.96875,50.5054545 L52.8125,50.5054545 L50.546875,50.5054545 C50.234375,50.5054545 49.921875,50.74 49.921875,51.1309091 C49.921875,51.4436364 50.15625,51.7563636 50.46875,51.7563636 Z" id="Shape"></path>
                    <path d="M31.796875,27.2072727 C31.484375,27.2072727 31.171875,27.4418182 31.171875,27.8327273 L31.171875,40.3418182 C31.171875,40.6545455 31.40625,40.9672727 31.796875,40.9672727 L41.328125,40.9672727 C41.640625,40.9672727 41.953125,40.7327273 41.953125,40.3418182 L41.953125,27.8327273 C41.953125,27.52 41.71875,27.2072727 41.328125,27.2072727 L31.796875,27.2072727 Z M40.703125,39.7163636 L32.34375,39.7163636 L32.34375,28.38 L40.703125,28.38 C40.703125,28.38 40.703125,39.7163636 40.703125,39.7163636 Z" id="Shape"></path>
                    <path d="M74.375,31.2727273 C74.375,30.96 74.140625,30.6472727 73.75,30.6472727 L46.953125,30.6472727 C46.640625,30.6472727 46.328125,30.8818182 46.328125,31.2727273 C46.328125,31.5854545 46.5625,31.8981818 46.953125,31.8981818 L73.828125,31.8981818 C74.140625,31.8981818 74.375,31.5854545 74.375,31.2727273 Z" id="Shape"></path>
                    <path d="M46.953125,35.4945455 C46.640625,35.4945455 46.328125,35.7290909 46.328125,36.12 C46.328125,36.4327273 46.5625,36.7454545 46.953125,36.7454545 L65.234375,36.7454545 C65.546875,36.7454545 65.859375,36.5109091 65.859375,36.12 C65.859375,35.8072727 65.625,35.4945455 65.234375,35.4945455 L46.953125,35.4945455 Z" id="Shape"></path>
                    <path d="M92.109375,21.8127273 L86.015625,21.8127273 L91.5625,16.2618182 C91.796875,16.0272727 91.796875,15.6363636 91.5625,15.4018182 L87.65625,11.4927273 C87.421875,11.2581818 87.03125,11.2581818 86.796875,11.4927273 L75.625,22.8290909 L74.53125,21.7345455 C74.375,21.5781818 74.140625,21.5 73.90625,21.5781818 C73.671875,21.6563636 73.515625,21.8909091 73.515625,22.1254545 L73.515625,29.0054545 C73.515625,29.3181818 73.75,29.6309091 74.140625,29.6309091 L81.015625,29.6309091 C81.25,29.6309091 81.484375,29.4745455 81.5625,29.24 C81.640625,29.0054545 81.640625,28.7709091 81.40625,28.6145455 L80.3125,27.52 L84.84375,22.9854545 L92.109375,22.9854545 C93.125,22.9854545 93.984375,23.8454545 93.984375,24.8618182 L93.984375,46.5963636 L26.796875,46.5963636 L26.796875,24.8618182 C26.796875,23.8454545 27.65625,22.9854545 28.671875,22.9854545 L67.65625,22.9854545 L68.046875,23.3763636 C68.125,23.4545455 68.28125,23.5327273 68.4375,23.5327273 C68.59375,23.5327273 68.75,23.4545455 68.828125,23.3763636 L80.15625,12.04 L81.25,13.1345455 C81.40625,13.2909091 81.640625,13.3690909 81.875,13.2909091 C82.109375,13.2127273 82.265625,12.9781818 82.265625,12.7436364 L82.265625,5.86363636 C82.265625,5.70727273 82.1875,5.55090909 82.109375,5.47272727 C82.03125,5.39454545 81.875,5.31636364 81.71875,5.31636364 L74.84375,5.31636364 C74.609375,5.31636364 74.375,5.47272727 74.296875,5.70727273 C74.21875,5.94181818 74.21875,6.17636364 74.453125,6.33272727 L75.546875,7.42727273 L64.0625,18.6072727 C63.828125,18.8418182 63.828125,19.2327273 64.0625,19.4672727 L66.40625,21.8127273 L28.671875,21.8127273 C27.03125,21.8127273 25.625,23.1418182 25.625,24.8618182 L25.625,52.3036364 L21.71875,52.3036364 L21.5625,52.3036364 C19.375,52.46 17.421875,53.5545455 16.09375,55.3527273 C15.3125,56.5254545 13.984375,57.1509091 12.578125,57.1509091 L11.171875,57.1509091 C11.09375,57.0727273 11.015625,56.9163636 10.9375,56.8381818 C10.46875,56.3690909 9.765625,56.1345455 9.0625,56.2127273 C7.1875,56.2909091 5.3125,56.3690909 3.515625,56.4472727 C3.203125,56.4472727 2.96875,56.76 2.96875,57.0727273 C2.96875,57.3854545 3.28125,57.62 3.59375,57.62 C5.46875,57.62 7.34375,57.5418182 9.21875,57.3854545 C9.609375,57.3854545 10,57.4636364 10.234375,57.6981818 C10.390625,57.8545455 10.546875,58.0109091 10.546875,58.3236364 L10.546875,73.2563636 C10.546875,73.5690909 10.390625,73.8036364 10.234375,73.8818182 C10,74.1163636 9.609375,74.2727273 9.21875,74.1945455 C6.484375,74.0381818 3.75,73.96 1.015625,73.96 C0.703125,73.96 0.390625,74.1945455 0.390625,74.5854545 C0.390625,74.8981818 0.625,75.2109091 1.015625,75.2109091 L1.015625,75.2109091 C3.671875,75.2109091 6.40625,75.2890909 9.140625,75.4454545 L9.296875,75.4454545 C9.921875,75.4454545 10.546875,75.2109091 10.9375,74.82 L11.015625,74.82 C11.484375,74.82 12.96875,74.9763636 13.828125,75.4454545 C14.0625,75.6018182 14.296875,75.68 14.53125,75.8363636 C15.625,76.4618182 16.796875,77.2436364 19.21875,77.7909091 C20.3125,78.0254545 22.96875,78.1036364 25.703125,78.1036364 C29.53125,78.1036364 33.59375,77.9472727 33.828125,77.9472727 C35.46875,77.9472727 36.875,76.6181818 36.875,74.8981818 C36.875,74.1945455 36.640625,73.5690909 36.25,73.0218182 L36.25,73.0218182 C37.890625,73.0218182 39.296875,71.6927273 39.296875,69.9727273 C39.296875,69.0345455 38.828125,68.1745455 38.203125,67.6272727 C39.0625,67.08 39.609375,66.1418182 39.609375,65.0472727 C39.609375,64.3436364 39.375,63.7181818 38.984375,63.1709091 L92.03125,63.1709091 C93.671875,63.1709091 95.078125,61.8418182 95.078125,60.1218182 L95.078125,54.8836364 L95.078125,47.0654545 L95.078125,24.8618182 C95.15625,23.1418182 93.828125,21.8127273 92.109375,21.8127273 Z M79.0625,27.9890909 L79.53125,28.4581818 L74.6875,28.4581818 L74.6875,23.6109091 L75.15625,24.08 C75.234375,24.1581818 75.390625,24.2363636 75.546875,24.2363636 L75.546875,24.2363636 C75.703125,24.2363636 75.859375,24.1581818 75.9375,24.08 L87.265625,12.7436364 L90.3125,15.7927273 L78.984375,27.1290909 C78.828125,27.3636364 78.828125,27.7545455 79.0625,27.9890909 Z M76.640625,7.74 C76.875,7.50545455 76.875,7.11454545 76.640625,6.88 L76.171875,6.41090909 L81.015625,6.41090909 L81.015625,11.2581818 L80.546875,10.7890909 C80.46875,10.7109091 80.3125,10.6327273 80.15625,10.6327273 L80.15625,10.6327273 C80,10.6327273 79.84375,10.7109091 79.765625,10.7890909 L68.4375,22.1254545 L65.390625,19.0763636 L76.640625,7.74 Z M26.796875,47.7690909 L93.984375,47.7690909 L93.984375,54.4145455 L37.734375,54.4145455 C37.890625,53.9454545 37.96875,53.3981818 37.96875,52.8509091 C37.96875,52.5381818 37.734375,52.2254545 37.34375,52.2254545 L26.796875,52.2254545 L26.796875,47.7690909 Z M19.53125,76.6963636 C17.265625,76.1490909 16.171875,75.5236364 15.15625,74.8981818 C14.921875,74.7418182 14.6875,74.5854545 14.453125,74.5072727 C13.515625,74.0381818 12.265625,73.8036364 11.5625,73.7254545 C11.5625,73.5690909 11.640625,73.4127273 11.640625,73.2563636 L11.640625,58.4018182 L11.640625,58.4018182 L12.65625,58.4018182 C14.453125,58.4018182 16.09375,57.5418182 17.109375,56.0563636 C18.203125,54.4145455 20.078125,53.4763636 22.03125,53.4763636 L34.765625,53.4763636 L34.765625,53.4763636 L36.71875,53.4763636 C36.40625,55.5872727 34.609375,57.2290909 32.421875,57.2290909 L24.765625,57.2290909 C24.453125,57.2290909 24.21875,57.4636364 24.140625,57.7763636 C24.140625,58.0890909 23.984375,64.8127273 17.65625,65.9854545 C17.34375,66.0636364 17.109375,66.3763636 17.1875,66.6890909 C17.265625,67.0018182 17.5,67.1581818 17.734375,67.1581818 L17.8125,67.1581818 C23.90625,66.0636364 25,60.2781818 25.15625,58.4018182 L25.390625,58.4018182 L25.390625,60.2781818 C25.390625,61.6854545 26.328125,62.8581818 27.65625,63.1709091 C27.1875,63.7181818 26.875,64.4218182 26.875,65.2036364 C26.875,66.22 27.34375,67.08 28.125,67.6272727 C27.34375,68.1745455 26.875,69.0345455 26.875,70.0509091 C26.875,71.0672727 27.34375,71.9272727 28.125,72.4745455 C27.34375,73.0218182 26.875,73.8818182 26.875,74.8981818 C26.875,75.68 27.1875,76.3836364 27.578125,76.9309091 C24.53125,77.0872727 20.859375,77.0090909 19.53125,76.6963636 Z M35.78125,74.9763636 C35.78125,75.9927273 34.921875,76.8527273 33.90625,76.8527273 L33.828125,76.8527273 L30.078125,77.0090909 C30.078125,77.0090909 30.078125,77.0090909 30,77.0090909 C28.984375,77.0090909 28.125,76.0709091 28.125,75.0545455 C28.125,74.0381818 28.984375,73.1781818 30,73.1781818 L31.015625,73.1781818 L31.015625,73.1781818 L32.109375,73.1781818 L33.828125,73.1781818 C35,73.1 35.78125,73.96 35.78125,74.9763636 Z M36.328125,71.9272727 L33.90625,71.9272727 L33.90625,71.9272727 L33.90625,71.9272727 L30.078125,71.9272727 C29.0625,71.9272727 28.203125,71.0672727 28.203125,70.0509091 C28.203125,69.0345455 29.0625,68.1745455 30.078125,68.1745455 L33.90625,68.1745455 L33.90625,68.1745455 L36.328125,68.1745455 C37.34375,68.1745455 38.203125,69.0345455 38.203125,70.0509091 C38.203125,71.1454545 37.421875,71.9272727 36.328125,71.9272727 Z M38.515625,65.2036364 C38.515625,66.22 37.65625,67.08 36.640625,67.08 L36.328125,67.08 L33.90625,67.08 L31.5625,67.08 L30.15625,67.08 C29.140625,67.08 28.28125,66.22 28.28125,65.2036364 C28.28125,64.1872727 29.140625,63.3272727 30.15625,63.3272727 L33.984375,63.3272727 L34.0625,63.3272727 L36.71875,63.3272727 C37.734375,63.3272727 38.515625,64.1090909 38.515625,65.2036364 Z M92.109375,62.1545455 L36.71875,62.1545455 L31.5625,62.1545455 L28.671875,62.1545455 C27.65625,62.1545455 26.796875,61.2945455 26.796875,60.2781818 L26.796875,58.4018182 L32.5,58.4018182 C34.53125,58.4018182 36.25,57.3072727 37.265625,55.6654545 L93.984375,55.6654545 L93.984375,60.2781818 C93.984375,61.2945455 93.125,62.1545455 92.109375,62.1545455 Z" id="Shape"></path>
                </g>
            </g>
        </g>
    </g>
</svg>