<?xml version="1.0" encoding="UTF-8"?>
<svg width="140px" height="19px" viewBox="0 0 140 19" version="1.1" xmlns="http://www.w3.org/2000/svg" xmlns:xlink="http://www.w3.org/1999/xlink">
    <!-- Generator: Sketch 44.1 (41455) - http://www.bohemiancoding.com/sketch -->
    <title>Logo</title>
    <desc>Created with Sketch.</desc>
    <defs></defs>
    <g id="Page-1" stroke="none" stroke-width="1" fill="none" fill-rule="evenodd">
        <g id="Landing-Mabel" transform="translate(-49.000000, -43.000000)">
            <g id="header" transform="translate(0.000000, 8.000000)">
                <g id="Logo" transform="translate(50.000000, 36.000000)">
                    <path d="M36.0316861,0.434580647 C39.9760339,0.434580647 42.2849205,2.28650005 42.2849205,5.72577895 C42.2849205,9.26126145 40.0481866,11.0169773 36.0316861,11.0169773 L33.3379852,11.0169773 L33.3379852,17.6069242 L31.4379639,17.6069242 L31.4379639,0.434580647 L36.0316861,0.434580647 Z M33.3379852,2.14219464 L33.3379852,9.30936326 L36.0316861,9.30936326 C38.8215907,9.30936326 40.3608484,8.05871638 40.3608484,5.72577895 C40.3608484,3.41689242 38.8215907,2.14219464 36.0316861,2.14219464 L33.3379852,2.14219464 Z M47.6940827,15.9233611 L47.6940827,0.145969831 L45.8181124,0.723191464 L45.8181124,17.6069242 L55.7751856,17.6069242 L56.3524072,15.9233611 L47.6940827,15.9233611 Z M69.2173489,12.0752169 L66.0426299,4.57133568 L62.8919618,12.0752169 L69.2173489,12.0752169 Z M71.5262354,17.6069242 L69.914825,13.7828309 L62.1704348,13.7828309 L60.5590244,17.6069242 L58.6830541,17.6069242 L66.0426299,0.145969831 L73.4022057,17.6069242 L71.5262354,17.6069242 Z M83.5253446,9.86253399 L89.6102227,0.771293266 L87.7342524,0.194071633 L82.5873595,7.98656368 L77.4164157,0.194071633 L75.5404454,0.771293266 L81.6253234,9.86253399 L81.6253234,17.6069242 L83.5253446,17.6069242 L83.5253446,9.86253399 Z M98.4827147,0.338377042 C101.994146,0.338377042 103.725811,1.90168563 103.725811,4.7637429 C103.725811,6.6397132 103.028335,7.69795286 101.657434,8.3232763 C103.4372,9.04480334 104.49544,10.2954502 104.49544,12.5081331 C104.49544,15.7309539 101.994146,17.6069242 98.4827147,17.6069242 L93.1915164,17.6069242 L93.1915164,0.338377042 L98.4827147,0.338377042 Z M95.0674867,2.23839825 L95.0674867,7.40934205 L98.4827147,7.40934205 C100.623245,7.40934205 101.82579,6.5675605 101.82579,4.7637429 C101.82579,2.98397619 100.623245,2.23839825 98.4827147,2.23839825 L95.0674867,2.23839825 Z M95.0674867,9.28531235 L95.0674867,15.7309539 L99.0839873,15.7309539 C101.104263,15.7309539 102.595419,14.2878998 102.595419,12.5081331 C102.595419,10.7283664 101.104263,9.28531235 99.0839873,9.28531235 L95.0674867,9.28531235 Z M120.51105,2.11814374 L121.088271,0.410529746 L108.004581,0.410529746 L107.427359,2.11814374 L113.31983,2.11814374 L113.31983,17.6069242 L115.195801,17.6069242 L115.195801,2.11814374 L120.51105,2.11814374 Z M138.330477,16.3322265 L138.330477,13.9030854 C138.13807,14.1435944 136.310201,16.2600738 133.135482,16.2600738 C129.191135,16.2600738 126.064517,12.9651003 126.064517,8.99670154 C126.064517,5.05235371 129.191135,1.73332932 133.135482,1.73332932 C136.502609,1.73332932 138.354528,4.11436856 138.354528,4.11436856 L138.354528,1.68522752 C135.829183,-0.118590085 133.135482,0.00166442224 133.135482,0.00166442224 C128.180997,0.00166442224 124.140445,4.04221585 124.140445,8.99670154 C124.140445,13.9511872 128.180997,17.9917387 133.135482,17.9917387 C133.135482,17.9917387 135.829183,18.1119932 138.330477,16.3322265 Z" id="PLAYBTC" fill="#24356E"></path>
                    <g id="Group">
                        <polygon id="Triangle" fill="#009FB8" transform="translate(2.500000, 9.500000) rotate(90.000000) translate(-2.500000, -9.500000) " points="2 7 9 12 -4 12"></polygon>
                        <polygon id="Triangle" fill="#009FB8" transform="translate(19.500000, 8.500000) scale(-1, 1) rotate(90.000000) translate(-19.500000, -8.500000) " points="19 6 26 11 13 11"></polygon>
                        <polygon id="Path-3" stroke="#24356E" stroke-width="1.5" fill="#009FB8" stroke-linecap="round" stroke-linejoin="round" points="0.437901566 17.1792153 6.13062192 5.72640509 10.9475391 6.65001881 16.2023579 0 21.8950783 17.1792153"></polygon>
                        <polygon id="Path-2" stroke="#24356E" stroke-width="1.5" stroke-linecap="round" stroke-linejoin="round" points="0 17.1792153 22.3329799 17.1792153 22.3329799 2.6429562 7.44432662 12.3227833 0 2.6429562"></polygon>
                    </g>
                </g>
            </g>
        </g>
    </g>
</svg>