<?xml version="1.0" encoding="UTF-8"?>
<svg width="201px" height="27px" viewBox="0 0 201 27" version="1.1" xmlns="http://www.w3.org/2000/svg" xmlns:xlink="http://www.w3.org/1999/xlink">
    <!-- Generator: Sketch 44.1 (41455) - http://www.bohemiancoding.com/sketch -->
    <title>logo-no-background</title>
    <desc>Created with Sketch.</desc>
    <defs></defs>
    <g id="Page-1" stroke="none" stroke-width="1" fill="none" fill-rule="evenodd">
        <g id="Landing-Mabel" transform="translate(-119.000000, -3033.000000)">
            <g id="Footer" transform="translate(-12.000000, 2872.000000)">
                <g id="logo-no-background" transform="translate(132.000000, 162.000000)">
                    <path d="M51.8441527,0.625295895 C57.5194733,0.625295895 60.8416122,3.28992813 60.8416122,8.23853086 C60.8416122,13.325556 57.6232901,15.8517658 51.8441527,15.8517658 L47.968324,15.8517658 L47.968324,25.3337039 L45.2344805,25.3337039 L45.2344805,0.625295895 L51.8441527,0.625295895 Z M47.968324,3.08229445 L47.968324,13.3947673 L51.8441527,13.3947673 C55.8584038,13.3947673 58.0731631,11.5952754 58.0731631,8.23853086 C58.0731631,4.91639197 55.8584038,3.08229445 51.8441527,3.08229445 L47.968324,3.08229445 Z M68.6245794,22.911311 L68.6245794,0.210028533 L65.9253416,1.04056326 L65.9253416,25.3337039 L80.2520656,25.3337039 L81.0826003,22.911311 L68.6245794,22.911311 Z M99.5933077,17.3744128 L95.0253668,6.57746142 L90.4920314,17.3744128 L99.5933077,17.3744128 Z M102.915447,25.3337039 L100.596871,19.8314114 L89.453863,19.8314114 L87.1352869,25.3337039 L84.436049,25.3337039 L95.0253668,0.210028533 L105.614684,25.3337039 L102.915447,25.3337039 Z M120.180352,14.1906964 L128.935572,1.10977448 L126.236334,0.27923976 L118.830733,11.4914585 L111.390526,0.27923976 L108.691288,1.10977448 L117.446509,14.1906964 L117.446509,25.3337039 L120.180352,25.3337039 L120.180352,14.1906964 Z M141.701748,0.486873441 C146.754167,0.486873441 149.245772,2.73623832 149.245772,6.85430632 C149.245772,9.55354418 148.242209,11.0761912 146.269689,11.9759371 C148.830504,13.0141055 150.353151,14.8135974 150.353151,17.9973139 C150.353151,22.6344661 146.754167,25.3337039 141.701748,25.3337039 L134.088513,25.3337039 L134.088513,0.486873441 L141.701748,0.486873441 Z M136.787751,3.22071691 L136.787751,10.6609238 L141.701748,10.6609238 C144.781647,10.6609238 146.511928,9.44972734 146.511928,6.85430632 C146.511928,4.29349093 144.781647,3.22071691 141.701748,3.22071691 L136.787751,3.22071691 Z M136.787751,13.3601617 L136.787751,22.6344661 L142.566888,22.6344661 C145.47376,22.6344661 147.619308,20.5581293 147.619308,17.9973139 C147.619308,15.4364985 145.47376,13.3601617 142.566888,13.3601617 L136.787751,13.3601617 Z M173.397194,3.04768884 L174.227729,0.590690282 L155.402275,0.590690282 L154.57174,3.04768884 L163.050116,3.04768884 L163.050116,25.3337039 L165.749353,25.3337039 L165.749353,3.04768884 L173.397194,3.04768884 Z M199.036658,23.4996064 L199.036658,20.0044395 C198.759813,20.3504956 196.129786,23.3957896 191.561845,23.3957896 C185.886525,23.3957896 181.387795,18.6548205 181.387795,12.9448943 C181.387795,7.26957369 185.886525,2.49399902 191.561845,2.49399902 C196.406631,2.49399902 199.071263,5.91995476 199.071263,5.91995476 L199.071263,2.4247878 C195.437674,-0.170633215 191.561845,0.00239485214 191.561845,0.00239485214 C184.433089,0.00239485214 178.619346,5.81613792 178.619346,12.9448943 C178.619346,20.0736507 184.433089,25.8873937 191.561845,25.8873937 C191.561845,25.8873937 195.437674,26.0604218 199.036658,23.4996064 Z" id="PLAYBTC" fill="#24356E"></path>
                    <g id="Group" stroke-linecap="round" stroke-width="1.5" stroke="#24356E" stroke-linejoin="round">
                        <polygon id="Path-3" points="0.630074195 24.7182954 8.82103873 8.23943178 15.7518549 9.56837239 23.3127452 0 31.5037098 24.7182954"></polygon>
                        <polygon id="Path-2" points="0 24.7182954 32.133784 24.7182954 32.133784 3.80281467 10.7112613 17.7306234 0 3.80281467"></polygon>
                    </g>
                </g>
            </g>
        </g>
    </g>
</svg>