<?xml version="1.0" encoding="UTF-8"?>
<svg width="100px" height="91px" viewBox="0 0 100 91" version="1.1" xmlns="http://www.w3.org/2000/svg" xmlns:xlink="http://www.w3.org/1999/xlink">
    <!-- Generator: Sketch 44.1 (41455) - http://www.bohemiancoding.com/sketch -->
    <title>noun_749801_cc</title>
    <desc>Created with Sketch.</desc>
    <defs></defs>
    <g id="Page-1" stroke="none" stroke-width="1" fill="none" fill-rule="evenodd">
        <g id="Landing-Mabel" transform="translate(-1004.000000, -1927.000000)" fill-rule="nonzero" fill="#009FB8">
            <g id="Group-16" transform="translate(1004.000000, 1927.000000)">
                <g id="Group-13">
                    <g id="Group-12">
                        <g id="noun_749801_cc">
                            <g id="Group">
                                <path d="M11.2082181,27.1191851 C11.2082181,26.8056685 10.9730807,26.5705311 10.6595641,26.5705311 C10.3460475,26.5705311 10.1109101,26.8056685 10.1109101,27.1191851 L10.1109101,35.8192705 C10.1109101,36.1327871 10.3460475,36.3679245 10.6595641,36.3679245 C10.9730807,36.3679245 11.2082181,36.1327871 11.2082181,35.8192705 L11.2082181,27.1191851 Z" id="Shape"></path>
                                <path d="M10.6595641,38.0922658 C10.3460475,38.0922658 10.1109101,38.3274032 10.1109101,38.6409198 L10.1109101,41.4625691 C10.1109101,41.7760857 10.3460475,42.0112232 10.6595641,42.0112232 C10.9730807,42.0112232 11.2082181,41.7760857 11.2082181,41.4625691 L11.2082181,38.6409198 C11.2082181,38.3274032 10.9730807,38.0922658 10.6595641,38.0922658 Z" id="Shape"></path>
                                <path d="M93.7414606,40.2868819 L93.7414606,48.9869673 C93.7414606,49.3004839 93.9765981,49.5356213 94.2901147,49.5356213 C94.6036313,49.5356213 94.8387687,49.3004839 94.8387687,48.9869673 L94.8387687,40.2868819 C94.8387687,39.9733653 94.6036313,39.7382279 94.2901147,39.7382279 C93.9765981,39.7382279 93.7414606,39.9733653 93.7414606,40.2868819 Z" id="Shape"></path>
                                <path d="M94.3684938,51.2599626 C94.0549772,51.2599626 93.8198398,51.4951 93.8198398,51.8086166 L93.8198398,54.6302659 C93.8198398,54.9437825 94.0549772,55.17892 94.3684938,55.17892 C94.6820104,55.17892 94.9171479,54.9437825 94.9171479,54.6302659 L94.9171479,51.8086166 C94.9171479,51.4951 94.6820104,51.2599626 94.3684938,51.2599626 Z" id="Shape"></path>
                                <path d="M93.1928066,15.5190712 C93.2711858,15.5974504 93.427944,15.6758295 93.5847023,15.6758295 C93.7414606,15.6758295 93.8982189,15.5974504 93.9765981,15.5190712 C94.2117355,15.2839338 94.2117355,14.8920381 93.9765981,14.7352798 L92.6441526,13.4028343 C92.4090151,13.1676968 92.0171194,13.1676968 91.8603611,13.4028343 C91.6252236,13.6379717 91.6252236,14.0298674 91.8603611,14.1866257 L93.1928066,15.5190712 Z" id="Shape"></path>
                                <path d="M97.4252806,19.7515452 C97.5036597,19.8299244 97.660418,19.9083035 97.8171763,19.9083035 C97.9739346,19.9083035 98.1306929,19.8299244 98.2090721,19.7515452 C98.4442095,19.5164078 98.4442095,19.124512 98.2090721,18.9677537 L96.8766265,17.6353082 C96.6414891,17.4001708 96.2495934,17.4001708 96.0928351,17.6353082 C95.8576976,17.8704457 95.8576976,18.2623414 96.0928351,18.4190997 L97.4252806,19.7515452 Z" id="Shape"></path>
                                <path d="M92.2522568,19.9083035 C92.4090151,19.9083035 92.5657734,19.8299244 92.6441526,19.7515452 L93.9765981,18.4190997 C94.2117355,18.1839623 94.2117355,17.7920665 93.9765981,17.6353082 C93.7414606,17.4001708 93.3495649,17.4001708 93.1928066,17.6353082 L91.8603611,18.9677537 C91.6252236,19.2028912 91.6252236,19.5947869 91.8603611,19.7515452 C91.9387402,19.9083035 92.0954985,19.9083035 92.2522568,19.9083035 Z" id="Shape"></path>
                                <path d="M96.56311,15.6758295 C96.7198682,15.6758295 96.8766265,15.5974504 96.9550057,15.5190712 L98.2874512,14.1866257 C98.5225886,13.9514883 98.5225886,13.5595926 98.2874512,13.4028343 C98.0523138,13.1676968 97.660418,13.1676968 97.5036597,13.4028343 L96.1712142,14.7352798 C95.9360768,14.9704172 95.9360768,15.3623129 96.1712142,15.5190712 C96.2495934,15.5974504 96.4063517,15.6758295 96.56311,15.6758295 Z" id="Shape"></path>
                                <path d="M57.295157,84.1792046 C57.0600195,83.9440672 56.6681238,83.9440672 56.5113655,84.1792046 C56.276228,84.4143421 56.276228,84.8062378 56.5113655,84.9629961 L57.843811,86.2954416 C57.9221901,86.3738208 58.0789484,86.4521999 58.2357067,86.4521999 C58.392465,86.4521999 58.5492233,86.3738208 58.6276025,86.2954416 C58.8627399,86.0603042 58.8627399,85.6684084 58.6276025,85.5116501 L57.295157,84.1792046 Z" id="Shape"></path>
                                <path d="M61.6060101,88.4900577 C61.3708726,88.2549203 60.9789769,88.2549203 60.8222186,88.4900577 C60.5870812,88.7251952 60.5870812,89.1170909 60.8222186,89.2738492 L62.1546641,90.6062947 C62.2330433,90.6846739 62.3898016,90.763053 62.5465599,90.763053 C62.7033182,90.763053 62.8600764,90.6846739 62.9384556,90.6062947 C63.173593,90.3711573 63.173593,89.9792615 62.9384556,89.8225033 L61.6060101,88.4900577 Z" id="Shape"></path>
                                <path d="M57.843811,88.4900577 L56.5113655,89.8225033 C56.276228,90.0576407 56.276228,90.4495364 56.5113655,90.6062947 C56.5897446,90.6846739 56.7465029,90.763053 56.9032612,90.763053 C57.0600195,90.763053 57.2167778,90.6846739 57.295157,90.6062947 L58.6276025,89.2738492 C58.8627399,89.0387118 58.8627399,88.646816 58.6276025,88.4900577 C58.392465,88.2549203 58.0789484,88.2549203 57.843811,88.4900577 Z" id="Shape"></path>
                                <path d="M62.076285,84.1792046 L60.7438395,85.5116501 C60.508702,85.7467876 60.508702,86.1386833 60.7438395,86.2954416 C60.8222186,86.3738208 60.9789769,86.4521999 61.1357352,86.4521999 C61.2924935,86.4521999 61.4492518,86.3738208 61.5276309,86.2954416 L62.8600764,84.9629961 C63.0952139,84.7278587 63.0952139,84.3359629 62.8600764,84.1792046 C62.624939,84.0224463 62.3114224,84.0224463 62.076285,84.1792046 Z" id="Shape"></path>
                                <path d="M1.41082466,50.0058962 C1.17568722,49.7707588 0.783791477,49.7707588 0.627033182,50.0058962 C0.470274886,50.2410337 0.391895738,50.6329294 0.627033182,50.7896877 L1.95947869,52.1221332 C2.03785784,52.2005124 2.19461614,52.2788915 2.35137443,52.2788915 C2.50813273,52.2788915 2.66489102,52.2005124 2.74327017,52.1221332 C2.97840761,51.8869958 2.97840761,51.4951 2.74327017,51.3383417 L1.41082466,50.0058962 Z" id="Shape"></path>
                                <path d="M5.64329863,54.3167493 C5.40816119,54.0816119 5.01626545,54.0816119 4.85950716,54.3167493 C4.70274886,54.5518868 4.62436971,54.9437825 4.85950716,55.1005408 L6.11357352,56.4329863 C6.19195267,56.5113655 6.34871096,56.5897446 6.50546926,56.5897446 C6.66222755,56.5897446 6.81898585,56.5113655 6.897365,56.4329863 C7.13250244,56.1978489 7.13250244,55.8059532 6.897365,55.6491949 L5.64329863,54.3167493 Z" id="Shape"></path>
                                <path d="M1.88109954,54.3167493 L0.548654034,55.6491949 C0.313516591,55.8843323 0.313516591,56.276228 0.548654034,56.4329863 C0.627033182,56.5113655 0.783791477,56.5897446 0.940549772,56.5897446 C1.09730807,56.5897446 1.25406636,56.5113655 1.33244551,56.4329863 L2.66489102,55.1005408 C2.90002846,54.8654034 2.90002846,54.4735076 2.66489102,54.3167493 C2.42975358,54.1599911 2.11623699,54.0816119 1.88109954,54.3167493 Z" id="Shape"></path>
                                <path d="M6.11357352,50.0058962 L4.78112801,51.3383417 C4.54599057,51.5734792 4.54599057,51.9653749 4.78112801,52.1221332 C4.85950716,52.2005124 5.01626545,52.2788915 5.17302375,52.2788915 C5.32978204,52.2788915 5.48654034,52.2005124 5.56491949,52.1221332 L6.897365,50.7896877 C7.13250244,50.5545503 7.13250244,50.1626545 6.897365,50.0058962 C6.66222755,49.8491379 6.34871096,49.7707588 6.11357352,50.0058962 Z" id="Shape"></path>
                                <path d="M71.0115078,15.4406921 C72.5790908,15.4406921 73.754778,14.1866257 73.754778,12.6974219 C73.754778,11.129839 72.5007116,9.95415176 71.0115078,9.95415176 C69.4439249,9.95415176 68.2682376,11.2082181 68.2682376,12.6974219 C68.1898585,14.1866257 69.4439249,15.4406921 71.0115078,15.4406921 Z M71.0115078,11.0514598 C71.8736784,11.0514598 72.6574699,11.7568722 72.6574699,12.6974219 C72.6574699,13.5595926 71.9520576,14.343384 71.0115078,14.343384 C70.1493372,14.343384 69.3655457,13.6379717 69.3655457,12.6974219 C69.3655457,11.7568722 70.070958,11.0514598 71.0115078,11.0514598 Z" id="Shape"></path>
                                <path d="M23.9840192,81.0440387 C22.4164362,81.0440387 21.240749,82.2981051 21.240749,83.7873089 C21.240749,85.3548918 22.4948154,86.5305791 23.9840192,86.5305791 C25.5516021,86.5305791 26.7272894,85.2765127 26.7272894,83.7873089 C26.7272894,82.2981051 25.473223,81.0440387 23.9840192,81.0440387 Z M23.9840192,85.433271 C23.1218486,85.433271 22.3380571,84.7278587 22.3380571,83.7873089 C22.3380571,82.9251383 23.0434694,82.1413468 23.9840192,82.1413468 C24.8461898,82.1413468 25.6299813,82.8467591 25.6299813,83.7873089 C25.6299813,84.7278587 24.8461898,85.433271 23.9840192,85.433271 Z" id="Shape"></path>
                                <path d="M9.64063517,12.6974219 C9.64063517,13.0109385 9.87577261,13.246076 10.1892892,13.246076 L20.6137158,13.246076 C20.9272324,13.246076 21.1623699,13.0109385 21.1623699,12.6974219 C21.1623699,12.3839053 20.9272324,12.1487679 20.6137158,12.1487679 L10.1892892,12.1487679 C9.87577261,12.0703887 9.64063517,12.3055262 9.64063517,12.6974219 Z" id="Shape"></path>
                                <path d="M6.7406067,12.0703887 L3.37030335,12.0703887 C3.05678676,12.0703887 2.82164932,12.3055262 2.82164932,12.6190428 C2.82164932,12.9325594 3.05678676,13.1676968 3.37030335,13.1676968 L6.7406067,13.1676968 C7.05412329,13.1676968 7.28926074,12.9325594 7.28926074,12.6190428 C7.36763988,12.3055262 7.05412329,12.0703887 6.7406067,12.0703887 Z" id="Shape"></path>
                                <path d="M3.37030335,9.64063517 L10.6595641,9.64063517 C10.9730807,9.64063517 11.2082181,9.40549772 11.2082181,9.09198113 C11.2082181,8.77846454 10.9730807,8.5433271 10.6595641,8.5433271 L3.37030335,8.5433271 C3.05678676,8.5433271 2.82164932,8.77846454 2.82164932,9.09198113 C2.82164932,9.40549772 3.05678676,9.64063517 3.37030335,9.64063517 Z" id="Shape"></path>
                                <path d="M13.79473,9.64063517 L16.1461044,9.64063517 C16.459621,9.64063517 16.6947585,9.40549772 16.6947585,9.09198113 C16.6947585,8.77846454 16.459621,8.5433271 16.1461044,8.5433271 L13.79473,8.5433271 C13.4812134,8.5433271 13.246076,8.77846454 13.246076,9.09198113 C13.1676968,9.40549772 13.4812134,9.64063517 13.79473,9.64063517 Z" id="Shape"></path>
                                <path d="M93.1144275,83.865688 C93.1144275,83.5521714 92.87929,83.317034 92.5657734,83.317034 L82.1413468,83.317034 C81.8278302,83.317034 81.5926927,83.5521714 81.5926927,83.865688 C81.5926927,84.1792046 81.8278302,84.4143421 82.1413468,84.4143421 L92.5657734,84.4143421 C92.87929,84.4143421 93.1144275,84.1792046 93.1144275,83.865688 Z" id="Shape"></path>
                                <path d="M96.0144559,84.4143421 L99.3847593,84.4143421 C99.6982759,84.4143421 99.9334133,84.1792046 99.9334133,83.865688 C99.9334133,83.5521714 99.6982759,83.317034 99.3847593,83.317034 L96.0144559,83.317034 C95.7009393,83.317034 95.4658019,83.5521714 95.4658019,83.865688 C95.3874227,84.1792046 95.7009393,84.4143421 96.0144559,84.4143421 Z" id="Shape"></path>
                                <path d="M99.3847593,86.8440956 L92.0954985,86.8440956 C91.7819819,86.8440956 91.5468445,87.0792331 91.5468445,87.3927497 C91.5468445,87.7062663 91.7819819,87.9414037 92.0954985,87.9414037 L99.3847593,87.9414037 C99.6982759,87.9414037 99.9334133,87.7062663 99.9334133,87.3927497 C99.9334133,87.0792331 99.6982759,86.8440956 99.3847593,86.8440956 Z" id="Shape"></path>
                                <path d="M88.9603326,86.8440956 L86.6089582,86.8440956 C86.2954416,86.8440956 86.0603042,87.0792331 86.0603042,87.3927497 C86.0603042,87.7062663 86.2954416,87.9414037 86.6089582,87.9414037 L88.9603326,87.9414037 C89.2738492,87.9414037 89.5089867,87.7062663 89.5089867,87.3927497 C89.5873658,87.0792331 89.2738492,86.8440956 88.9603326,86.8440956 Z" id="Shape"></path>
                                <path d="M73.6763988,67.406067 L50.7896877,80.652143 L50.7896877,47.8112801 L79.2413183,31.3516591 L79.2413183,58.1573276 C79.2413183,58.4708442 79.4764558,58.7059816 79.7899723,58.7059816 C80.1034889,58.7059816 80.3386264,58.4708442 80.3386264,58.1573276 L80.3386264,30.4111093 L80.3386264,30.4111093 C80.3386264,30.3327302 80.3386264,30.254351 80.2602472,30.1759719 L80.2602472,30.1759719 C80.1818681,30.0975927 80.1818681,30.0192136 80.1034889,30.0192136 L80.1034889,30.0192136 L56.1978489,16.0677253 C55.8843323,15.910967 55.5708157,15.9893461 55.4140574,16.3028627 C55.2572991,16.6163793 55.3356783,16.9298959 55.6491949,17.0866542 L78.6926643,30.4111093 L50.1626545,46.7923512 L21.7110239,30.3327302 L44.7544933,17.008275 C45.0680099,16.8515168 45.1463891,16.459621 44.9896308,16.2244836 C44.8328725,15.910967 44.4409767,15.8325878 44.2058393,15.9893461 L20.3001993,29.8624553 L20.3001993,29.8624553 C20.2218201,29.9408344 20.143441,29.9408344 20.143441,30.0192136 L20.143441,30.0192136 C20.0650618,30.0975927 20.0650618,30.1759719 20.0650618,30.254351 L20.0650618,30.254351 L20.0650618,57.7654318 C20.0650618,58.0789484 20.3001993,58.3140859 20.6137158,58.3140859 C20.9272324,58.3140859 21.1623699,58.0789484 21.1623699,57.7654318 L21.1623699,31.3516591 L49.6140005,47.8112801 L49.6140005,80.652143 L26.4921519,67.3276879 C26.1786353,67.1709296 25.8651187,67.2493087 25.7083604,67.5628253 C25.5516021,67.8763419 25.6299813,68.1898585 25.9434979,68.3466168 L49.9275171,82.2197259 C50.0058962,82.2981051 50.0842754,82.2981051 50.2410337,82.2981051 C50.3194128,82.2981051 50.4761711,82.2981051 50.5545503,82.2197259 L74.303432,68.5033751 C74.6169486,68.3466168 74.6953277,67.954721 74.5385695,67.7195836 C74.303432,67.3276879 73.9115363,67.2493087 73.6763988,67.406067 Z" id="Shape"></path>
                                <path d="M44.9112516,8.15143136 L49.6140005,2.35137443 L49.6140005,26.1002562 C49.6140005,26.4137728 49.8491379,26.6489102 50.1626545,26.6489102 C50.4761711,26.6489102 50.7113086,26.4137728 50.7113086,26.1002562 L50.7113086,2.35137443 L55.3356783,8.15143136 C55.4140574,8.30818966 55.6491949,8.3865688 55.8059532,8.3865688 C55.9627115,8.3865688 56.0410906,8.30818966 56.1978489,8.22981051 C56.4329863,7.99467306 56.5113655,7.68115647 56.276228,7.44601903 L50.5545503,0.391895738 L50.5545503,0.391895738 C50.4761711,0.235137443 50.3194128,0.156758295 50.1626545,0.156758295 C50.0058962,0.156758295 49.8491379,0.235137443 49.7707588,0.391895738 L49.7707588,0.391895738 L44.049081,7.44601903 C43.8139436,7.68115647 43.8923227,8.07305221 44.1274601,8.22981051 C44.3625976,8.3865688 44.7544933,8.3865688 44.9112516,8.15143136 Z" id="Shape"></path>
                                <path d="M18.7326163,71.638541 L11.4433556,70.5412329 L31.9786923,58.7059816 C32.2922088,58.5492233 32.370588,58.1573276 32.2138297,57.9221901 C32.0570714,57.6086736 31.6651757,57.5302944 31.4300382,57.6870527 L10.8163224,69.522304 L13.4812134,62.624939 C13.5595926,62.3114224 13.4812134,61.9979058 13.1676968,61.8411475 C12.8541802,61.7627684 12.5406636,61.8411475 12.3839053,62.1546641 L9.09198113,70.6196121 L9.09198113,70.6196121 L9.09198113,70.7763704 C9.09198113,70.7763704 9.09198113,70.7763704 9.09198113,70.8547495 C9.09198113,70.9331287 9.09198113,71.0115078 9.17036028,71.089887 L9.17036028,71.089887 L9.17036028,71.089887 C9.24873943,71.1682661 9.32711858,71.2466453 9.40549772,71.3250244 L9.48387687,71.3250244 C9.56225602,71.3250244 9.56225602,71.4034035 9.64063517,71.4034035 L18.575858,72.8142282 L18.6542372,72.8142282 C18.9677537,72.8142282 19.2028912,72.5790908 19.2028912,72.3439533 C19.2812703,72.0304367 19.0461329,71.7169201 18.7326163,71.638541 Z" id="Shape"></path>
                                <path d="M81.9062093,72.8142282 L90.8414322,71.4034035 C90.9198113,71.4034035 90.9198113,71.4034035 90.9981905,71.3250244 L91.0765696,71.3250244 C91.1549488,71.2466453 91.2333279,71.2466453 91.3117071,71.089887 L91.3117071,71.089887 L91.3117071,71.089887 C91.3900862,71.0115078 91.3900862,70.9331287 91.3900862,70.8547495 C91.3900862,70.8547495 91.3900862,70.8547495 91.3900862,70.7763704 L91.3900862,70.6196121 L91.3900862,70.6196121 L88.098162,62.1546641 C88.0197829,61.8411475 87.6278871,61.6843892 87.3143705,61.8411475 C87.0008539,61.9195267 86.8440956,62.3114224 87.0008539,62.624939 L89.665745,69.522304 L69.0520291,57.6870527 C68.7385125,57.5302944 68.4249959,57.6086736 68.2682376,57.9221901 C68.1114793,58.2357067 68.1898585,58.5492233 68.5033751,58.7059816 L89.0387118,70.5412329 L81.6710719,71.7169201 C81.3575553,71.7952993 81.1224179,72.0304367 81.200797,72.3439533 C81.2791762,72.6574699 81.5143136,72.8142282 81.749451,72.8142282 C81.8278302,72.8142282 81.8278302,72.8142282 81.9062093,72.8142282 Z" id="Shape"></path>
                            </g>
                        </g>
                    </g>
                </g>
            </g>
        </g>
    </g>
</svg>