<?xml version="1.0" encoding="UTF-8"?>
<svg width="100px" height="94px" viewBox="0 0 100 94" version="1.1" xmlns="http://www.w3.org/2000/svg" xmlns:xlink="http://www.w3.org/1999/xlink">
    <!-- Generator: Sketch 44.1 (41455) - http://www.bohemiancoding.com/sketch -->
    <title>noun_749725_cc@3x</title>
    <desc>Created with Sketch.</desc>
    <defs></defs>
    <g id="Page-1" stroke="none" stroke-width="1" fill="none" fill-rule="evenodd">
        <g id="Landing-Mabel" transform="translate(-548.000000, -1925.000000)" fill-rule="nonzero" fill="#009FB8">
            <g id="noun_749725_cc" transform="translate(548.000000, 1925.000000)">
                <g id="Group">
                    <path d="M50.625,60.3166667 C48.515625,60.3166667 46.796875,62.04 46.796875,64.155 C46.796875,64.86 47.03125,65.565 47.421875,66.1916667 C47.421875,66.27 47.5,66.27 47.5,66.27 C47.65625,66.4266667 47.8125,66.5833333 47.890625,66.74 C48.28125,67.2883333 48.515625,68.0716667 48.515625,68.7766667 L48.515625,73.7116667 C48.515625,74.025 48.75,74.26 49.0625,74.26 L52.109375,74.26 C52.421875,74.26 52.65625,74.025 52.65625,73.7116667 L52.65625,68.7766667 C52.65625,68.0716667 52.890625,67.2883333 53.203125,66.74 C53.359375,66.505 53.515625,66.3483333 53.59375,66.1916667 L53.671875,66.1133333 C54.0625,65.4866667 54.296875,64.7816667 54.296875,64.0766667 C54.453125,62.04 52.734375,60.3166667 50.625,60.3166667 Z M52.96875,65.4866667 C52.8125,65.6433333 52.578125,65.8783333 52.421875,66.1916667 C51.875,66.975 51.640625,67.915 51.640625,68.855 L51.640625,73.2416667 L49.6875,73.2416667 L49.6875,68.855 C49.6875,67.8366667 49.453125,66.975 48.90625,66.1916667 C48.75,65.9566667 48.515625,65.7216667 48.359375,65.565 C48.125,65.1733333 47.96875,64.7033333 47.96875,64.2333333 C47.96875,62.745 49.140625,61.57 50.625,61.57 C52.109375,61.57 53.28125,62.745 53.28125,64.2333333 C53.359375,64.625 53.203125,65.095 52.96875,65.4866667 Z" id="Shape"></path>
                    <path d="M69.296875,49.35 L64.0625,49.35 L64.0625,43.0833333 C73.4375,42.77 82.890625,42.1433333 92.1875,41.125 C93.671875,40.9683333 94.765625,39.715 94.765625,38.305 L94.765625,36.3466667 L97.578125,36.3466667 C97.890625,36.3466667 98.125,36.1116667 98.125,35.7983333 C98.125,35.485 97.890625,35.25 97.578125,35.25 L94.765625,35.25 L94.765625,30.7066667 L97.578125,30.7066667 C97.890625,30.7066667 98.125,30.4716667 98.125,30.1583333 C98.125,29.845 97.890625,29.61 97.578125,29.61 L94.765625,29.61 L94.765625,25.0666667 L97.578125,25.0666667 C97.890625,25.0666667 98.125,24.8316667 98.125,24.5183333 C98.125,24.205 97.890625,23.97 97.578125,23.97 L94.765625,23.97 L94.765625,19.4266667 L97.578125,19.4266667 C97.890625,19.4266667 98.125,19.1916667 98.125,18.8783333 C98.125,18.565 97.890625,18.33 97.578125,18.33 L94.765625,18.33 L94.765625,16.3716667 C94.765625,14.8833333 93.671875,13.7083333 92.1875,13.5516667 C64.609375,10.6533333 36.71875,10.6533333 9.140625,13.5516667 C7.65625,13.7083333 6.5625,14.9616667 6.5625,16.3716667 L6.5625,18.33 L3.828125,18.33 C3.515625,18.33 3.28125,18.565 3.28125,18.8783333 C3.28125,19.1916667 3.515625,19.4266667 3.828125,19.4266667 L6.640625,19.4266667 L6.640625,23.97 L3.828125,23.97 C3.515625,23.97 3.28125,24.205 3.28125,24.5183333 C3.28125,24.8316667 3.515625,25.0666667 3.828125,25.0666667 L6.640625,25.0666667 L6.640625,29.61 L3.828125,29.61 C3.515625,29.61 3.28125,29.845 3.28125,30.1583333 C3.28125,30.4716667 3.515625,30.7066667 3.828125,30.7066667 L6.640625,30.7066667 L6.640625,35.25 L3.828125,35.25 C3.515625,35.25 3.28125,35.485 3.28125,35.7983333 C3.28125,36.1116667 3.515625,36.3466667 3.828125,36.3466667 L6.640625,36.3466667 L6.640625,38.3833333 C6.640625,39.8716667 7.734375,41.0466667 9.21875,41.2033333 C18.515625,42.2216667 27.96875,42.8483333 37.34375,43.1616667 L37.34375,49.4283333 L32.03125,49.4283333 C28.828125,49.4283333 26.171875,52.0133333 26.171875,55.3033333 L26.171875,79.43 C26.171875,82.6416667 28.75,85.305 32.03125,85.305 L69.21875,85.305 C72.421875,85.305 75.078125,82.72 75.078125,79.43 L75.078125,55.225 C75.078125,52.0133333 72.5,49.35 69.296875,49.35 Z M57.421875,49.35 L57.421875,36.7383333 C57.421875,32.9783333 54.375,29.9233333 50.625,29.9233333 C48.671875,29.9233333 46.796875,30.785 45.46875,32.2733333 C44.21875,31.02 43.4375,29.2183333 43.4375,27.26 L43.4375,26.79 C45.546875,25.3016667 47.96875,24.5183333 50.546875,24.5183333 C57.265625,24.5183333 62.734375,30.0016667 62.734375,36.7383333 L62.734375,49.35 L57.421875,49.35 Z M50.703125,43.3966667 C52.578125,43.3966667 54.453125,43.3966667 56.328125,43.3183333 L56.328125,49.35 L45,49.35 L45,43.3183333 C46.875,43.3966667 48.828125,43.3966667 50.703125,43.3966667 Z M54.921875,32.9783333 C53.671875,33.9183333 52.1875,34.3883333 50.625,34.3883333 C49.0625,34.3883333 47.578125,33.84 46.40625,32.9783333 C47.5,31.725 48.984375,31.02 50.625,31.02 C52.34375,31.02 53.90625,31.8033333 54.921875,32.9783333 Z M43.828125,25.2233333 C44.6875,22.2466667 47.421875,20.1316667 50.703125,20.1316667 C53.90625,20.1316667 56.71875,22.2466667 57.578125,25.3016667 C55.546875,24.1266667 53.203125,23.3433333 50.703125,23.3433333 C48.203125,23.3433333 45.859375,23.97 43.828125,25.2233333 Z M7.734375,38.3833333 L7.734375,16.1366667 C7.734375,15.275 8.359375,14.4916667 9.21875,14.4133333 C36.71875,11.515 64.53125,11.515 92.03125,14.4133333 C92.890625,14.4916667 93.515625,15.1966667 93.515625,16.1366667 L93.515625,38.3833333 C93.515625,39.245 92.890625,40.0283333 92.03125,40.1066667 C82.734375,41.0466667 73.359375,41.7516667 63.984375,42.065 L63.984375,36.7383333 C63.984375,33.2916667 62.734375,30.2366667 60.625,27.8866667 L76.796875,27.8866667 L76.796875,29.9233333 C76.796875,30.2366667 77.03125,30.4716667 77.34375,30.4716667 L82.578125,30.4716667 C82.890625,30.4716667 83.125,30.2366667 83.125,29.9233333 L83.125,24.675 C83.125,24.3616667 82.890625,24.1266667 82.578125,24.1266667 L77.34375,24.1266667 C77.03125,24.1266667 76.796875,24.3616667 76.796875,24.675 L76.796875,26.7116667 L59.453125,26.7116667 C59.296875,26.555 59.0625,26.3983333 58.828125,26.2416667 C58.28125,22.09 54.84375,19.035 50.625,19.035 C46.25,19.035 42.65625,22.4816667 42.34375,26.79 L24.453125,26.79 L24.453125,24.7533333 C24.453125,24.44 24.21875,24.205 23.90625,24.205 L18.671875,24.205 C18.359375,24.205 18.125,24.44 18.125,24.7533333 L18.125,30.0016667 C18.125,30.315 18.359375,30.55 18.671875,30.55 L23.90625,30.55 C24.21875,30.55 24.453125,30.315 24.453125,30.0016667 L24.453125,27.965 L42.34375,27.965 C42.65625,32.2733333 46.25,35.72 50.625,35.72 C52.421875,35.72 54.140625,35.1716667 55.546875,34.075 C56.015625,34.8583333 56.25,35.8766667 56.25,36.8166667 L56.25,42.3 C40.625,42.535 24.765625,41.83 9.21875,40.185 C8.4375,39.95 7.734375,39.245 7.734375,38.3833333 Z M77.96875,25.2233333 L82.03125,25.2233333 L82.03125,29.2966667 L77.96875,29.2966667 L77.96875,25.2233333 Z M23.359375,29.2966667 L19.296875,29.2966667 L19.296875,25.2233333 L23.359375,25.2233333 L23.359375,29.2966667 Z M38.4375,43.1616667 C40.234375,43.24 42.03125,43.24 43.828125,43.3183333 L43.828125,49.35 L38.4375,49.35 L38.4375,43.1616667 Z M73.90625,79.3516667 C73.90625,81.9366667 71.796875,84.0516667 69.21875,84.0516667 L32.03125,84.0516667 C29.453125,84.0516667 27.34375,81.9366667 27.34375,79.3516667 L27.34375,55.225 C27.34375,52.64 29.453125,50.525 32.03125,50.525 L69.21875,50.525 C71.796875,50.525 73.90625,52.64 73.90625,55.225 L73.90625,79.3516667 Z" id="Shape"></path>
                    <path d="M67.109375,56.165 L34.21875,56.165 C33.515625,56.165 32.96875,56.7133333 32.96875,57.4183333 L32.96875,77.2366667 C32.96875,77.9416667 33.515625,78.49 34.21875,78.49 L67.109375,78.49 C67.8125,78.49 68.359375,77.9416667 68.359375,77.2366667 L68.359375,57.4183333 C68.359375,56.7133333 67.8125,56.165 67.109375,56.165 Z M67.1875,77.1583333 C67.1875,77.2366667 67.1875,77.2366667 67.109375,77.2366667 L34.21875,77.2366667 C34.140625,77.2366667 34.140625,77.2366667 34.140625,77.1583333 L34.140625,57.4183333 C34.140625,57.34 34.140625,57.34 34.21875,57.34 L67.109375,57.34 C67.1875,57.34 67.1875,57.34 67.1875,57.4183333 L67.1875,77.1583333 Z" id="Shape"></path>
                    <path d="M11.328125,57.1833333 C11.640625,57.1833333 11.875,56.9483333 11.875,56.635 L11.875,47.5483333 C11.875,47.235 11.640625,47 11.328125,47 C11.015625,47 10.78125,47.235 10.78125,47.5483333 L10.78125,56.635 C10.703125,56.87 11.015625,57.1833333 11.328125,57.1833333 Z" id="Shape"></path>
                    <path d="M10.703125,62.51 C10.703125,62.8233333 10.9375,63.0583333 11.25,63.0583333 C11.5625,63.0583333 11.796875,62.8233333 11.796875,62.51 L11.796875,59.5333333 C11.796875,59.22 11.5625,58.985 11.25,58.985 C10.9375,58.985 10.703125,59.22 10.703125,59.5333333 L10.703125,62.51 Z" id="Shape"></path>
                    <path d="M97.5,71.0483333 C97.8125,71.0483333 98.046875,70.8133333 98.046875,70.5 L98.046875,61.4133333 C98.046875,61.1 97.8125,60.865 97.5,60.865 C97.1875,60.865 96.953125,61.1 96.953125,61.4133333 L96.953125,70.5 C96.953125,70.8133333 97.1875,71.0483333 97.5,71.0483333 Z" id="Shape"></path>
                    <path d="M96.953125,76.375 C96.953125,76.6883333 97.1875,76.9233333 97.5,76.9233333 C97.8125,76.9233333 98.046875,76.6883333 98.046875,76.375 L98.046875,73.4766667 C98.046875,73.1633333 97.8125,72.9283333 97.5,72.9283333 C97.1875,72.9283333 96.953125,73.1633333 96.953125,73.4766667 L96.953125,76.375 Z" id="Shape"></path>
                    <path d="M89.765625,2.585 C89.84375,2.66333333 90,2.74166667 90.15625,2.74166667 C90.3125,2.74166667 90.46875,2.66333333 90.546875,2.585 C90.78125,2.35 90.78125,1.95833333 90.546875,1.80166667 L89.296875,0.548333333 C89.0625,0.313333333 88.671875,0.313333333 88.515625,0.548333333 C88.28125,0.783333333 88.28125,1.175 88.515625,1.33166667 L89.765625,2.585 Z" id="Shape"></path>
                    <path d="M93.75,6.58 C93.828125,6.65833333 93.984375,6.73666667 94.140625,6.73666667 C94.296875,6.73666667 94.453125,6.65833333 94.53125,6.58 C94.765625,6.345 94.765625,5.95333333 94.53125,5.79666667 L93.28125,4.54333333 C93.046875,4.30833333 92.65625,4.30833333 92.5,4.54333333 C92.34375,4.77833333 92.265625,5.17 92.5,5.32666667 L93.75,6.58 Z" id="Shape"></path>
                    <path d="M88.984375,6.73666667 C89.140625,6.73666667 89.296875,6.65833333 89.375,6.58 L90.625,5.32666667 C90.859375,5.09166667 90.859375,4.7 90.625,4.54333333 C90.390625,4.30833333 90,4.30833333 89.84375,4.54333333 L88.59375,5.79666667 C88.359375,6.03166667 88.359375,6.42333333 88.59375,6.58 C88.671875,6.65833333 88.828125,6.73666667 88.984375,6.73666667 Z" id="Shape"></path>
                    <path d="M92.890625,2.74166667 C93.046875,2.74166667 93.203125,2.66333333 93.28125,2.585 L94.53125,1.33166667 C94.765625,1.09666667 94.765625,0.705 94.53125,0.548333333 C94.296875,0.313333333 93.90625,0.313333333 93.75,0.548333333 L92.5,1.80166667 C92.265625,2.03666667 92.265625,2.42833333 92.5,2.585 C92.65625,2.74166667 92.734375,2.74166667 92.890625,2.74166667 Z" id="Shape"></path>
                    <path d="M7.734375,73.3983333 C7.5,73.1633333 7.109375,73.1633333 6.953125,73.3983333 C6.796875,73.6333333 6.71875,74.025 6.953125,74.1816667 L8.203125,75.435 C8.28125,75.5133333 8.4375,75.5916667 8.59375,75.5916667 C8.75,75.5916667 8.90625,75.5133333 8.984375,75.435 C9.21875,75.2 9.21875,74.8083333 8.984375,74.6516667 L7.734375,73.3983333 Z" id="Shape"></path>
                    <path d="M11.71875,77.3933333 C11.484375,77.1583333 11.09375,77.1583333 10.9375,77.3933333 C10.703125,77.6283333 10.703125,78.02 10.9375,78.1766667 L12.1875,79.43 C12.265625,79.5083333 12.421875,79.5866667 12.578125,79.5866667 C12.734375,79.5866667 12.890625,79.5083333 12.96875,79.43 C13.203125,79.195 13.203125,78.8033333 12.96875,78.6466667 L11.71875,77.3933333 Z" id="Shape"></path>
                    <path d="M8.125,77.3933333 L6.875,78.6466667 C6.640625,78.8816667 6.640625,79.2733333 6.875,79.43 C6.953125,79.5083333 7.109375,79.5866667 7.265625,79.5866667 C7.421875,79.5866667 7.578125,79.5083333 7.65625,79.43 L8.90625,78.1766667 C9.140625,77.9416667 9.140625,77.55 8.90625,77.3933333 C8.75,77.1583333 8.359375,77.1583333 8.125,77.3933333 Z" id="Shape"></path>
                    <path d="M12.109375,73.3983333 L10.9375,74.6516667 C10.703125,74.8866667 10.703125,75.2783333 10.9375,75.435 C11.015625,75.5133333 11.171875,75.5916667 11.328125,75.5916667 C11.484375,75.5916667 11.640625,75.5133333 11.71875,75.435 L12.96875,74.1816667 C13.203125,73.9466667 13.203125,73.555 12.96875,73.3983333 C12.734375,73.1633333 12.34375,73.1633333 12.109375,73.3983333 Z" id="Shape"></path>
                    <path d="M84.765625,50.6033333 L83.59375,49.35 C83.359375,49.115 82.96875,49.115 82.8125,49.35 C82.578125,49.585 82.578125,49.9766667 82.8125,50.1333333 L84.0625,51.3866667 C84.140625,51.465 84.296875,51.5433333 84.453125,51.5433333 C84.609375,51.5433333 84.765625,51.465 84.84375,51.3866667 C85,51.23 85,50.8383333 84.765625,50.6033333 Z" id="Shape"></path>
                    <path d="M88.75,54.5983333 L87.5,53.345 C87.265625,53.11 86.875,53.11 86.71875,53.345 C86.5625,53.58 86.484375,53.9716667 86.71875,54.1283333 L87.96875,55.3816667 C88.046875,55.46 88.203125,55.5383333 88.359375,55.5383333 C88.515625,55.5383333 88.671875,55.46 88.75,55.3816667 C88.984375,55.1466667 88.984375,54.8333333 88.75,54.5983333 Z" id="Shape"></path>
                    <path d="M83.984375,53.345 L82.734375,54.5983333 C82.5,54.8333333 82.5,55.225 82.734375,55.3816667 C82.8125,55.46 82.96875,55.5383333 83.125,55.5383333 C83.28125,55.5383333 83.4375,55.46 83.515625,55.3816667 L84.765625,54.1283333 C85,53.8933333 85,53.5016667 84.765625,53.345 C84.53125,53.1883333 84.21875,53.11 83.984375,53.345 Z" id="Shape"></path>
                    <path d="M88.75,49.35 C88.515625,49.115 88.125,49.115 87.96875,49.35 L86.71875,50.6033333 C86.484375,50.8383333 86.484375,51.23 86.71875,51.3866667 C86.796875,51.465 86.953125,51.5433333 87.109375,51.5433333 C87.265625,51.5433333 87.421875,51.465 87.5,51.3866667 L88.75,50.1333333 C88.984375,49.9766667 88.984375,49.585 88.75,49.35 Z" id="Shape"></path>
                    <path d="M59.296875,6.42333333 C60.859375,6.42333333 62.1875,5.09166667 62.1875,3.525 C62.1875,1.95833333 60.859375,0.626666667 59.296875,0.626666667 C57.734375,0.626666667 56.40625,1.95833333 56.40625,3.525 C56.40625,5.09166667 57.65625,6.42333333 59.296875,6.42333333 Z M59.296875,1.80166667 C60.234375,1.80166667 61.015625,2.585 61.015625,3.525 C61.015625,4.465 60.234375,5.24833333 59.296875,5.24833333 C58.359375,5.24833333 57.578125,4.465 57.578125,3.525 C57.578125,2.585 58.359375,1.80166667 59.296875,1.80166667 Z" id="Shape"></path>
                    <path d="M37.1875,88.0466667 C35.625,88.0466667 34.296875,89.3783333 34.296875,90.945 C34.296875,92.5116667 35.625,93.8433333 37.1875,93.8433333 C38.75,93.8433333 40.078125,92.5116667 40.078125,90.945 C40.078125,89.3783333 38.75,88.0466667 37.1875,88.0466667 Z M37.1875,92.7466667 C36.25,92.7466667 35.46875,91.9633333 35.46875,91.0233333 C35.46875,90.0833333 36.25,89.3 37.1875,89.3 C38.125,89.3 38.90625,90.0833333 38.90625,91.0233333 C38.90625,91.9633333 38.125,92.7466667 37.1875,92.7466667 Z" id="Shape"></path>
                    <path d="M7.96875,1.25333333 L18.671875,1.25333333 C18.984375,1.25333333 19.21875,1.01833333 19.21875,0.705 C19.21875,0.391666667 18.984375,0.156666667 18.671875,0.156666667 L7.96875,0.156666667 C7.65625,0.156666667 7.421875,0.391666667 7.421875,0.705 C7.34375,1.01833333 7.65625,1.25333333 7.96875,1.25333333 Z" id="Shape"></path>
                    <path d="M0.9375,1.25333333 L4.375,1.25333333 C4.6875,1.25333333 4.921875,1.01833333 4.921875,0.705 C4.921875,0.391666667 4.6875,0.156666667 4.375,0.156666667 L0.9375,0.156666667 C0.625,0.156666667 0.390625,0.391666667 0.390625,0.705 C0.390625,1.01833333 0.625,1.25333333 0.9375,1.25333333 Z" id="Shape"></path>
                    <path d="M8.984375,4.38666667 C8.984375,4.07333333 8.75,3.83833333 8.4375,3.83833333 L0.9375,3.83833333 C0.625,3.83833333 0.390625,4.07333333 0.390625,4.38666667 C0.390625,4.7 0.625,4.935 0.9375,4.935 L8.4375,4.935 C8.75,4.935 8.984375,4.7 8.984375,4.38666667 Z" id="Shape"></path>
                    <path d="M11.640625,3.83833333 C11.328125,3.83833333 11.09375,4.07333333 11.09375,4.38666667 C11.09375,4.7 11.328125,4.935 11.640625,4.935 L14.0625,4.935 C14.375,4.935 14.609375,4.7 14.609375,4.38666667 C14.609375,4.07333333 14.375,3.83833333 14.0625,3.83833333 L11.640625,3.83833333 Z" id="Shape"></path>
                    <path d="M92.03125,89.3 L81.328125,89.3 C81.015625,89.3 80.78125,89.535 80.78125,89.8483333 C80.78125,90.1616667 81.015625,90.3966667 81.328125,90.3966667 L92.03125,90.3966667 C92.34375,90.3966667 92.578125,90.1616667 92.578125,89.8483333 C92.65625,89.6133333 92.34375,89.3 92.03125,89.3 Z" id="Shape"></path>
                    <path d="M99.0625,89.3 L95.625,89.3 C95.3125,89.3 95.078125,89.535 95.078125,89.8483333 C95.078125,90.1616667 95.3125,90.3966667 95.625,90.3966667 L99.0625,90.3966667 C99.375,90.3966667 99.609375,90.1616667 99.609375,89.8483333 C99.609375,89.6133333 99.375,89.3 99.0625,89.3 Z" id="Shape"></path>
                    <path d="M91.015625,86.245 C91.015625,86.5583333 91.25,86.7933333 91.5625,86.7933333 L99.0625,86.7933333 C99.375,86.7933333 99.609375,86.5583333 99.609375,86.245 C99.609375,85.9316667 99.375,85.6966667 99.0625,85.6966667 L91.5625,85.6966667 C91.25,85.6183333 91.015625,85.9316667 91.015625,86.245 Z" id="Shape"></path>
                    <path d="M88.359375,85.6183333 L85.9375,85.6183333 C85.625,85.6183333 85.390625,85.8533333 85.390625,86.1666667 C85.390625,86.48 85.625,86.715 85.9375,86.715 L88.359375,86.715 C88.671875,86.715 88.90625,86.48 88.90625,86.1666667 C88.90625,85.9316667 88.671875,85.6183333 88.359375,85.6183333 Z" id="Shape"></path>
                </g>
            </g>
        </g>
    </g>
</svg>